<?xml version="1.0" standalone="no"?>
<!DOCTYPE svg PUBLIC "-//W3C//DTD SVG 20010904//EN"
 "http://www.w3.org/TR/2001/REC-SVG-20010904/DTD/svg10.dtd">
<svg version="1.0" xmlns="http://www.w3.org/2000/svg"
 width="144.000000pt" height="144.000000pt" viewBox="0 0 144.000000 144.000000"
 preserveAspectRatio="xMidYMid meet">
<metadata>
Created by potrace 1.14, written by Peter Selinger 2001-2017
</metadata>
<g transform="translate(0.000000,144.000000) scale(0.100000,-0.100000)"
fill="#000000" stroke="none">
<path d="M714 1362 c-146 -51 -254 -202 -254 -356 0 -197 169 -376 357 -376
l43 0 0 375 0 375 -47 0 c-27 -1 -71 -9 -99 -18z m104 -44 c2 -11 -11 -19 -45
-27 -142 -36 -225 -141 -225 -286 0 -89 25 -150 87 -209 40 -40 71 -56 173
-91 6 -2 12 -11 12 -20 0 -13 -7 -15 -37 -9 -118 20 -225 114 -263 228 -16 49
-16 153 0 202 36 109 132 196 245 224 38 10 49 7 53 -12z m0 -113 c1 -25 -3
-45 -8 -45 -4 0 -22 -12 -39 -26 -40 -33 -43 -83 -6 -119 13 -14 31 -25 39
-25 10 0 14 -12 14 -45 0 -25 -3 -45 -8 -45 -11 0 -40 29 -40 41 0 5 -9 9 -20
9 -43 0 -14 -68 38 -89 26 -11 29 -17 29 -57 0 -38 -3 -44 -21 -44 -39 1 -102
37 -142 83 -61 69 -79 151 -52 239 23 76 128 167 194 168 19 0 22 -6 22 -45z
m0 -131 c2 -37 -12 -42 -32 -12 -7 12 -6 21 3 32 20 24 28 19 29 -20z"/>
<path d="M902 1009 l3 -374 30 -3 c88 -11 226 59 290 145 80 109 96 268 39
389 -56 118 -174 202 -299 212 l-65 5 2 -374z m165 295 c69 -33 146 -118 169
-186 22 -66 22 -160 -1 -227 -32 -98 -160 -206 -254 -213 -25 -2 -35 1 -36 13
-2 12 13 21 55 32 260 73 293 425 51 546 -20 10 -52 21 -71 25 -27 5 -36 11
-36 26 0 17 5 19 36 14 19 -3 58 -17 87 -30z m-42 -73 c45 -20 98 -71 123
-116 12 -21 17 -54 17 -110 0 -89 -11 -118 -67 -174 -35 -36 -100 -70 -134
-71 -18 0 -21 5 -19 42 1 23 7 44 14 46 6 2 25 15 41 29 52 44 35 117 -34 143
-20 7 -24 15 -22 44 3 46 11 53 28 27 12 -20 38 -28 51 -15 11 12 -16 52 -47
69 -27 15 -32 22 -30 54 1 20 2 39 3 44 2 12 34 7 76 -12z m-38 -287 c6 -17
-15 -46 -31 -41 -6 2 -11 20 -11 39 0 32 2 35 18 26 10 -5 21 -16 24 -24z"/>
<path d="M440 647 c-25 -13 -83 -45 -128 -72 l-84 -48 -22 28 c-28 35 -61 35
-121 1 -55 -33 -72 -63 -55 -97 41 -79 206 -367 218 -381 8 -10 26 -18 39 -18
27 0 93 31 117 55 18 18 22 70 6 80 -16 10 -12 33 8 44 13 7 62 -2 182 -34
196 -53 209 -55 255 -45 19 4 149 78 289 164 229 141 256 160 266 191 15 47
-1 95 -39 118 -59 35 -101 21 -307 -100 -78 -46 -146 -83 -151 -83 -5 0 -7 17
-5 38 6 61 -24 87 -133 116 -49 14 -114 34 -143 45 -70 28 -135 27 -192 -2z
m207 -50 c54 -19 122 -40 151 -47 61 -14 83 -42 63 -79 -15 -27 -36 -27 -144
1 -76 20 -89 21 -97 8 -14 -22 -1 -29 101 -56 151 -40 186 -34 344 58 72 41
149 85 172 97 47 23 102 28 121 9 18 -18 15 -63 -5 -80 -10 -8 -123 -79 -251
-157 -156 -96 -245 -145 -270 -148 -25 -3 -95 11 -219 45 -180 48 -183 49
-212 31 l-29 -17 -61 107 c-33 58 -61 110 -61 113 0 8 192 118 234 135 46 17
57 16 163 -20z m-417 -178 c36 -63 85 -149 108 -191 l43 -77 -47 -27 c-38 -22
-48 -25 -55 -13 -30 47 -209 368 -209 376 0 12 72 54 85 49 6 -1 39 -54 75
-117z"/>
<path d="M127 483 c-15 -14 -7 -43 12 -43 24 0 33 13 25 34 -6 16 -25 21 -37
9z"/>
</g>
</svg>
